HIERARCHY
ROOT Hips
{
  OFFSET 5.72205e-005 65.662 3.42586
  CHANNELS 6 Xposition Yposition Zposition Zrotation Xrotation Yrotation
  JOINT Chest
  {
    OFFSET 0 8.7983 -4.7612
    CHANNELS 3 Zrotation Xrotation Yrotation
    JOINT Chest2
    {
      OFFSET 0 8.0291 0.4195
      CHANNELS 3 Zrotation Xrotation Yrotation
      JOINT Chest3
      {
        OFFSET 0 9.9351 -2.2114
        CHANNELS 3 Zrotation Xrotation Yrotation
        JOINT Neck
        {
          OFFSET 0 22.3885 -0.4656
          CHANNELS 3 Zrotation Xrotation Yrotation
          JOINT Head
          {
            OFFSET -0.0001 12.643 3.4389
            CHANNELS 3 Zrotation Xrotation Yrotation
            End Site
            {
              OFFSET 0.0001 17.6655 0.5274
            }
          }
        }
        JOINT LeftCollar
        {
          OFFSET 2.2603 21.606 7.4023
          CHANNELS 3 Zrotation Xrotation Yrotation
          JOINT LeftShoulder
          {
            OFFSET 13.5163 -1.1332 -5.0146
            CHANNELS 3 Zrotation Xrotation Yrotation
            JOINT LeftElbow
            {
              OFFSET -0.0995 -28.05 -0.2431
              CHANNELS 3 Zrotation Xrotation Yrotation
              JOINT LeftWrist
              {
                OFFSET 0.0679 -23.3996 -0.1402
                CHANNELS 3 Zrotation Xrotation Yrotation
                JOINT LeftFinger1
                {
                  OFFSET 0.7932 -9.069 2.5189
                  CHANNELS 3 Zrotation Xrotation Yrotation
                  JOINT LeftFinger11
                  {
                    OFFSET -0.8272 -3.3923 0.5977
                    CHANNELS 3 Zrotation Xrotation Yrotation
                    JOINT LeftFinger12
                    {
                      OFFSET -0.5649 -2.3158 0.4082
                      CHANNELS 3 Zrotation Xrotation Yrotation
                      End Site
                      {
                        OFFSET -0.4919 -1.6479 0.2673
                      }
                    }
                  }
                }
                JOINT LeftFinger2
                {
                  OFFSET 0.9159 -9.2044 0.2193
                  CHANNELS 3 Zrotation Xrotation Yrotation
                  JOINT LeftFinger21
                  {
                    OFFSET 0.0117 -4.1944 -0.0248
                    CHANNELS 3 Zrotation Xrotation Yrotation
                    JOINT LeftFinger22
                    {
                      OFFSET 0.0071 -2.3249 -0.0142
                      CHANNELS 3 Zrotation Xrotation Yrotation
                      End Site
                      {
                        OFFSET -0.1475 -2.0882 0.0028
                      }
                    }
                  }
                }
                JOINT LeftFinger3
                {
                  OFFSET 0.6113 -8.7231 -2.0637
                  CHANNELS 3 Zrotation Xrotation Yrotation
                  JOINT LeftFinger31
                  {
                    OFFSET -0.1927 -3.8059 -0.2383
                    CHANNELS 3 Zrotation Xrotation Yrotation
                    JOINT LeftFinger32
                    {
                      OFFSET -0.1091 -2.1688 -0.1362
                      CHANNELS 3 Zrotation Xrotation Yrotation
                      End Site
                      {
                        OFFSET -0.2358 -1.9176 -0.0906
                      }
                    }
                  }
                }
                JOINT LeftFinger4
                {
                  OFFSET -0.6151 -8.0947 -3.5641
                  CHANNELS 3 Zrotation Xrotation Yrotation
                  JOINT LeftFinger41
                  {
                    OFFSET -0.4882 -2.341 -0.6462
                    CHANNELS 3 Zrotation Xrotation Yrotation
                    JOINT LeftFinger42
                    {
                      OFFSET -0.3575 -1.7167 -0.4742
                      CHANNELS 3 Zrotation Xrotation Yrotation
                      End Site
                      {
                        OFFSET -0.4187 -1.5237 -0.3496
                      }
                    }
                  }
                }
                JOINT LeftFinger0
                {
                  OFFSET -1.42 -1.8761 1.4223
                  CHANNELS 3 Zrotation Xrotation Yrotation
                  JOINT LeftFinger01
                  {
                    OFFSET -1.1471 -3.4929 2.6334
                    CHANNELS 3 Zrotation Xrotation Yrotation
                    JOINT LeftFinger02
                    {
                      OFFSET -0.823 -2.3 1.6571
                      CHANNELS 3 Zrotation Xrotation Yrotation
                      End Site
                      {
                        OFFSET -0.5822 -1.6914 1.1582
                      }
                    }
                  }
                }
              }
            }
          }
        }
        JOINT RightCollar
        {
          OFFSET -2.2603 21.606 7.4023
          CHANNELS 3 Zrotation Xrotation Yrotation
          JOINT RightShoulder
          {
            OFFSET -13.5187 -1.1334 -5.0155
            CHANNELS 3 Zrotation Xrotation Yrotation
            JOINT RightElbow
            {
              OFFSET 0.0994 -28.0499 -0.2431
              CHANNELS 3 Zrotation Xrotation Yrotation
              JOINT RightWrist
              {
                OFFSET -0.0679 -23.3996 -0.1402
                CHANNELS 3 Zrotation Xrotation Yrotation
                JOINT RightFinger1
                {
                  OFFSET -0.7932 -9.0691 2.5189
                  CHANNELS 3 Zrotation Xrotation Yrotation
                  JOINT RightFinger11
                  {
                    OFFSET 0.8272 -3.3923 0.5977
                    CHANNELS 3 Zrotation Xrotation Yrotation
                    JOINT RightFinger12
                    {
                      OFFSET 0.565 -2.3158 0.4082
                      CHANNELS 3 Zrotation Xrotation Yrotation
                      End Site
                      {
                        OFFSET 0.4919 -1.6479 0.2673
                      }
                    }
                  }
                }
                JOINT RightFinger2
                {
                  OFFSET -0.916 -9.2044 0.2193
                  CHANNELS 3 Zrotation Xrotation Yrotation
                  JOINT RightFinger21
                  {
                    OFFSET -0.0117 -4.1944 -0.0248
                    CHANNELS 3 Zrotation Xrotation Yrotation
                    JOINT RightFinger22
                    {
                      OFFSET -0.0071 -2.3249 -0.0142
                      CHANNELS 3 Zrotation Xrotation Yrotation
                      End Site
                      {
                        OFFSET 0.1475 -2.0882 0.0028
                      }
                    }
                  }
                }
                JOINT RightFinger3
                {
                  OFFSET -0.6113 -8.7231 -2.0637
                  CHANNELS 3 Zrotation Xrotation Yrotation
                  JOINT RightFinger31
                  {
                    OFFSET 0.1927 -3.8059 -0.2383
                    CHANNELS 3 Zrotation Xrotation Yrotation
                    JOINT RightFinger32
                    {
                      OFFSET 0.1091 -2.1688 -0.1362
                      CHANNELS 3 Zrotation Xrotation Yrotation
                      End Site
                      {
                        OFFSET 0.2358 -1.9176 -0.0906
                      }
                    }
                  }
                }
                JOINT RightFinger4
                {
                  OFFSET 0.6151 -8.0947 -3.564
                  CHANNELS 3 Zrotation Xrotation Yrotation
                  JOINT RightFinger41
                  {
                    OFFSET 0.4882 -2.341 -0.6462
                    CHANNELS 3 Zrotation Xrotation Yrotation
                    JOINT RightFinger42
                    {
                      OFFSET 0.3574 -1.7166 -0.4742
                      CHANNELS 3 Zrotation Xrotation Yrotation
                      End Site
                      {
                        OFFSET 0.4187 -1.5237 -0.3496
                      }
                    }
                  }
                }
                JOINT RightFinger0
                {
                  OFFSET 1.4199 -1.8761 1.4221
                  CHANNELS 3 Zrotation Xrotation Yrotation
                  JOINT RightFinger01
                  {
                    OFFSET 1.1472 -3.4929 2.6336
                    CHANNELS 3 Zrotation Xrotation Yrotation
                    JOINT RightFinger02
                    {
                      OFFSET 0.8229 -2.3 1.6571
                      CHANNELS 3 Zrotation Xrotation Yrotation
                      End Site
                      {
                        OFFSET 0.5822 -1.6914 1.1582
                      }
                    }
                  }
                }
              }
            }
          }
        }
      }
    }
  }
  JOINT RightHip
  {
    OFFSET -9.412 3.9771 -0.7758
    CHANNELS 3 Zrotation Xrotation Yrotation
    JOINT RightKnee
    {
      OFFSET -0.7531 -40.938 0
      CHANNELS 3 Zrotation Xrotation Yrotation
      JOINT RightAnkle
      {
        OFFSET 0 -40.1986 0
        CHANNELS 3 Zrotation Xrotation Yrotation
        JOINT RightToe
        {
          OFFSET 0 -4.4182 9.239
          CHANNELS 3 Zrotation Xrotation Yrotation
          End Site
          {
            OFFSET 0 0 6.1981
          }
        }
      }
    }
  }
  JOINT LeftHip
  {
    OFFSET 9.4119 3.9773 -0.7758
    CHANNELS 3 Zrotation Xrotation Yrotation
    JOINT LeftKnee
    {
      OFFSET 0.7532 -40.9383 0
      CHANNELS 3 Zrotation Xrotation Yrotation
      JOINT LeftAnkle
      {
        OFFSET 0 -40.1986 0
        CHANNELS 3 Zrotation Xrotation Yrotation
        JOINT LeftToe
        {
          OFFSET 0 -4.4182 9.239
          CHANNELS 3 Zrotation Xrotation Yrotation
          End Site
          {
            OFFSET 0 0 6.1981
          }
        }
      }
    }
  }
}
MOTION
Frames:	4
Frame Time:	0.0333333
-3.15895 1.56038 9.64886 -71.9755 -89.9972 -160.974 0.13323 -0.152358 -0.279456 0.265712 -0.305306 -0.558599 0.265709 -0.305292 -0.558583 -22.1044 -0.0526193 -0.0130324 -18.3208 -1.36232 -16.2561 -30.2898 -8.99803 -14.2567 53.7868 -1.84359 7.30606 -128.402 -77.8347 -111.71 -16.5043 -1.74968 19.1005 9.7156e-015 -3.18055e-015 -1.98785e-015 8.67198e-015 -3.18055e-015 -6.5102e-015 7.67806e-015 0 -4.57205e-015 9.7156e-015 -3.18055e-015 -1.98785e-015 -0.0128136 0.00232556 8.53442e-005 2.45996e-015 -3.18055e-015 3.47873e-016 9.7156e-015 -3.18055e-015 -1.98785e-015 -0.0160183 0.00299571 0.000850517 -1.09242e-005 4.17509e-006 3.0816e-006 9.7156e-015 -3.18055e-015 -1.98785e-015 -0.0126301 0.00312919 0.00283467 -1.34428e-014 0 8.44835e-016 9.7156e-015 -3.18055e-015 -1.98785e-015 8.67198e-015 -3.18055e-015 -6.5102e-015 7.67806e-015 0 -4.57205e-015 -26.4965 3.18461 -7.64979 -170.034 -66.3348 -172.679 -11.8089 -48.4413 -12.4303 -21.2231 -9.6029 -14.6108 3.18055e-015 -1.59028e-015 -4.96962e-017 3.18055e-015 -1.19271e-015 1.49089e-016 3.18055e-015 -1.19271e-015 -1.49089e-016 3.18055e-015 -1.59028e-015 -4.96962e-017 0.0129345 0.00232549 -7.34423e-005 -0 0 8.44835e-016 3.18055e-015 -1.59028e-015 -4.96962e-017 0.0163323 0.0030356 -0.000865704 -1.37935e-033 3.97569e-016 1.98785e-016 3.18055e-015 -1.59028e-015 -4.96962e-017 0.0145664 0.00368902 -0.00324805 -4.77083e-015 -7.95139e-016 -2.98177e-016 3.18055e-015 -1.59028e-015 -4.96962e-017 3.18055e-015 -1.19271e-015 1.49089e-016 3.18055e-015 -1.19271e-015 -1.49089e-016 -0.807704 -2.77092 -1.87289 10.5487 61.135 -10.3841 -2.30482 12.4922 8.7168 -5.47815e-007 -1.5722e-006 -1.59968e-006 -19.0845 -31.0992 -7.7267 35.8728 50.689 -17.9848 -5.10414 1.70273 -17.2035 -1.44623e-005 -4.69788e-006 -3.55752e-007 
-3.15895 1.56039 9.64886 -72.0422 -89.9972 -161.041 0.133229 -0.152338 -0.279456 0.265715 -0.305313 -0.558602 0.265708 -0.305306 -0.55858 -22.2772 -0.0477918 -0.0119285 -18.5662 -1.32553 -16.3579 -30.2898 -8.99801 -14.2567 53.7338 -1.70912 7.17538 -127.553 -77.9306 -110.808 -16.4762 -1.86361 19.0919 7.94286e-006 -6.7286e-008 -2.92523e-006 7.45443e-016 -6.36111e-015 -2.08724e-015 -3.78461e-006 -2.92429e-006 5.16494e-007 7.94286e-006 -6.7286e-008 -2.92523e-006 -0.012814 0.00232412 8.82253e-005 -2.32494e-006 -1.37112e-006 -9.47347e-007 7.94286e-006 -6.7286e-008 -2.92523e-006 -0.0160674 0.00300008 0.000856886 6.19576e-006 2.75177e-006 -2.26488e-006 7.94286e-006 -6.7286e-008 -2.92523e-006 -0.0125694 0.00312122 0.00282027 -9.46909e-006 -7.96432e-008 1.60238e-006 7.94286e-006 -6.7286e-008 -2.92523e-006 7.45443e-016 -6.36111e-015 -2.08724e-015 -3.78461e-006 -2.92429e-006 5.16494e-007 -26.4965 3.18464 -7.64979 -170.034 -66.3347 -172.68 -11.809 -48.4412 -12.4303 -21.2231 -9.60288 -14.6109 -2.10071e-006 -6.08289e-006 -7.1616e-006 -1.59028e-015 1.19271e-015 -9.93923e-017 0 7.95139e-016 -0 -2.10071e-006 -6.08289e-006 -7.1616e-006 0.0129385 0.00231518 -7.67173e-005 -1.59028e-015 0 2.98177e-016 -2.10071e-006 -6.08289e-006 -7.1616e-006 0.0163166 0.00302863 -0.000866514 -1.68996e-006 3.64474e-006 -9.92952e-008 -2.10071e-006 -6.08289e-006 -7.1616e-006 0.0145637 0.00368478 -0.00324497 1.59028e-015 1.19271e-015 7.95139e-016 -2.10071e-006 -6.08289e-006 -7.1616e-006 -1.59028e-015 1.19271e-015 -9.93923e-017 0 7.95139e-016 -0 -0.80771 -2.77135 -1.87287 10.5489 61.1355 -10.3843 -2.30481 12.4922 8.7168 1.02309e-005 1.6121e-006 -1.7427e-006 -19.0845 -31.0992 -7.72672 35.8728 50.6891 -17.9848 -5.10415 1.7027 -17.2035 -1.60693e-006 -2.2035e-006 3.98485e-006 
-3.15895 1.56038 9.64886 -71.8757 -89.9972 -160.875 0.133256 -0.152362 -0.279538 0.265785 -0.3054 -0.558753 0.265779 -0.305371 -0.558735 -22.4502 -0.0429483 -0.0104022 -18.8113 -1.28832 -16.4594 -30.2899 -8.99804 -14.2563 53.6812 -1.57449 7.04479 -126.692 -78.0237 -109.893 -16.4481 -1.97751 19.0833 2.43511e-015 -3.18055e-015 -9.93923e-017 8.58016e-006 -1.42189e-007 1.49959e-006 -8.29477e-006 -1.39239e-006 -6.95034e-007 2.43511e-015 -3.18055e-015 -9.93923e-017 -0.0128286 0.00233181 8.58011e-005 -6.95746e-016 -3.18055e-015 1.98785e-016 2.43511e-015 -3.18055e-015 -9.93923e-017 -0.0160633 0.00299446 0.000860953 2.98177e-015 -3.18055e-014 -3.67752e-015 2.43511e-015 -3.18055e-015 -9.93923e-017 -0.0125963 0.00312584 0.00283103 2.03421e-006 -4.25505e-006 1.38391e-007 2.43511e-015 -3.18055e-015 -9.93923e-017 8.58016e-006 -1.42189e-007 1.49959e-006 -8.29477e-006 -1.39239e-006 -6.95034e-007 -26.4967 3.18463 -7.64939 -170.036 -66.3344 -172.681 -11.8094 -48.4408 -12.4302 -21.2231 -9.6029 -14.6108 6.16177e-006 -6.58264e-006 -3.25702e-006 1.59028e-015 3.97569e-016 2.98177e-016 -2.32945e-006 -2.73996e-007 3.38239e-006 6.16177e-006 -6.58264e-006 -3.25702e-006 0.012939 0.00231201 -7.84964e-005 2.78064e-006 -6.74257e-006 -3.45532e-006 6.16177e-006 -6.58264e-006 -3.25702e-006 0.0163312 0.00303594 -0.000869277 1.59028e-015 1.59028e-015 -1.22253e-014 6.16177e-006 -6.58264e-006 -3.25702e-006 0.0145465 0.0036598 -0.00325473 -2.32889e-006 -2.77056e-007 3.38206e-006 6.16177e-006 -6.58264e-006 -3.25702e-006 1.59028e-015 3.97569e-016 2.98177e-016 -2.32945e-006 -2.73996e-007 3.38239e-006 -0.807721 -2.7717 -1.87289 10.5491 61.1358 -10.3845 -2.30485 12.4922 8.71681 -2.73908e-007 -1.41758e-007 -7.99839e-007 -19.0845 -31.0992 -7.72671 35.8728 50.689 -17.9848 -5.10414 1.70271 -17.2035 -1.86637e-006 -1.81921e-006 3.40172e-007 
-3.15895 1.56038 9.64886 -71.8757 -89.9972 -160.875 0.133256 -0.152362 -0.279538 0.265785 -0.3054 -0.558753 0.265779 -0.305371 -0.558735 -22.623 -0.0381629 -0.00926627 -19.0561 -1.25071 -16.5607 -30.2899 -8.99804 -14.2563 53.6288 -1.43975 6.91434 -125.816 -78.1139 -108.963 -16.42 -2.09145 19.0748 -1.6067e-006 -2.09721e-008 1.07487e-006 -2.82763e-007 1.05042e-007 -8.05421e-007 -9.69075e-015 3.18055e-015 4.77083e-015 -1.6067e-006 -2.09721e-008 1.07487e-006 -0.0127966 0.0023239 8.1836e-005 -3.42904e-015 6.36111e-015 2.38542e-015 -1.6067e-006 -2.09721e-008 1.07487e-006 -0.0160249 0.002997 0.000854534 -4.42296e-015 3.18055e-015 -1.59028e-015 -1.6067e-006 -2.09721e-008 1.07487e-006 -0.0126125 0.00313231 0.00283001 3.47873e-015 0 -3.97569e-016 -1.6067e-006 -2.09721e-008 1.07487e-006 -2.82763e-007 1.05042e-007 -8.05421e-007 -9.69075e-015 3.18055e-015 4.77083e-015 -26.4967 3.18463 -7.64939 -170.036 -66.3344 -172.681 -11.8094 -48.4408 -12.4302 -21.2231 -9.6029 -14.6108 6.16177e-006 -6.58264e-006 -3.25702e-006 1.59028e-015 3.97569e-016 2.98177e-016 -2.32945e-006 -2.73996e-007 3.38239e-006 6.16177e-006 -6.58264e-006 -3.25702e-006 0.012939 0.00231201 -7.84964e-005 2.78064e-006 -6.74257e-006 -3.45532e-006 6.16177e-006 -6.58264e-006 -3.25702e-006 0.0163312 0.00303594 -0.000869277 1.59028e-015 1.59028e-015 -1.22253e-014 6.16177e-006 -6.58264e-006 -3.25702e-006 0.0145465 0.0036598 -0.00325473 -2.32889e-006 -2.77056e-007 3.38206e-006 6.16177e-006 -6.58264e-006 -3.25702e-006 1.59028e-015 3.97569e-016 2.98177e-016 -2.32945e-006 -2.73996e-007 3.38239e-006 -0.807721 -2.7717 -1.87289 10.5491 61.1358 -10.3845 -2.30485 12.4922 8.71681 -2.73908e-007 -1.41758e-007 -7.99839e-007 -19.0845 -31.0992 -7.72671 35.8728 50.689 -17.9848 -5.10414 1.70271 -17.2035 -1.86637e-006 -1.81921e-006 3.40172e-007 
